<svg width="83" height="91" viewBox="0 0 83 91" fill="none" xmlns="http://www.w3.org/2000/svg">
<g clip-path="url(#clip0_13_32)">
<path d="M20.8579 78.9639C24.6636 78.9639 27.7487 75.6149 27.7487 71.4837C27.7487 67.3524 24.6636 64.0034 20.8579 64.0034C17.0522 64.0034 13.9671 67.3524 13.9671 71.4837C13.9671 75.6149 17.0522 78.9639 20.8579 78.9639Z" stroke="#8C52FF" stroke-width="5.5" stroke-linecap="round" stroke-linejoin="round"/>
<path d="M62.2024 26.6019C66.0081 26.6019 69.0932 23.2528 69.0932 19.1216C69.0932 14.9903 66.0081 11.6413 62.2024 11.6413C58.3968 11.6413 55.3117 14.9903 55.3117 19.1216C55.3117 23.2528 58.3968 26.6019 62.2024 26.6019Z" stroke="#8C52FF" stroke-width="5.5" stroke-linecap="round" stroke-linejoin="round"/>
<path d="M41.5302 71.4836H57.0344C60.2326 71.4836 63.2998 70.1045 65.5613 67.6495C67.8227 65.1946 69.0932 61.8649 69.0932 58.3931C69.0932 54.9213 67.8227 51.5917 65.5613 49.1367C63.2998 46.6818 60.2326 45.3026 57.0344 45.3026H29.4714C26.2732 45.3026 23.2059 43.9234 20.9445 41.4685C18.683 39.0135 17.4125 35.6839 17.4125 32.2121C17.4125 28.7403 18.683 25.4107 20.9445 22.9557C23.2059 20.5008 26.2732 19.1216 29.4714 19.1216H41.5302" stroke="#8C52FF" stroke-width="5.5" stroke-linecap="round" stroke-linejoin="round"/>
</g>
<defs>
<clipPath id="clip0_13_32">
<rect width="82.6891" height="89.7635" fill="white" transform="translate(0.185638 0.420837)"/>
</clipPath>
</defs>
</svg>

