<svg width="84" height="91" viewBox="0 0 84 91" fill="none" xmlns="http://www.w3.org/2000/svg">
<g clip-path="url(#clip0_13_37)">
<path d="M24.602 41.5624V71.4836C24.602 72.4756 24.239 73.4269 23.5929 74.1283C22.9468 74.8297 22.0704 75.2238 21.1567 75.2238H14.2659C13.3521 75.2238 12.4758 74.8297 11.8297 74.1283C11.1835 73.4269 10.8205 72.4756 10.8205 71.4836V45.3026C10.8205 44.3106 11.1835 43.3593 11.8297 42.6579C12.4758 41.9565 13.3521 41.5624 14.2659 41.5624H24.602ZM24.602 41.5624C28.2571 41.5624 31.7625 39.9862 34.347 37.1806C36.9316 34.3749 38.3836 30.5696 38.3836 26.6018V22.8617C38.3836 20.8778 39.1095 18.9752 40.4018 17.5723C41.6941 16.1695 43.4468 15.3814 45.2743 15.3814C47.1019 15.3814 48.8545 16.1695 50.1468 17.5723C51.4391 18.9752 52.1651 20.8778 52.1651 22.8617V41.5624H62.5012C64.3287 41.5624 66.0814 42.3505 67.3737 43.7534C68.666 45.1562 69.392 47.0588 69.392 49.0427L65.9466 67.7435C65.4511 70.038 64.5111 72.0081 63.2683 73.3573C62.0255 74.7064 60.5471 75.3615 59.0558 75.2238H34.9382C32.1969 75.2238 29.5678 74.0416 27.6294 71.9374C25.691 69.8331 24.602 66.9792 24.602 64.0033" stroke="#8C52FF" stroke-width="5.5" stroke-linecap="round" stroke-linejoin="round"/>
</g>
<defs>
<clipPath id="clip0_13_37">
<rect width="82.6891" height="89.7635" fill="white" transform="translate(0.484406 0.420837)"/>
</clipPath>
</defs>
</svg>


